HIERARCHY
ROOT Hips
{
	OFFSET 0.000000 0.000000 0.000000
	CHANNELS 6 Xposition Yposition Zposition Xrotation Yrotation Zrotation
	JOINT LeftUpLeg_virtual
	{
		OFFSET 0.000000 0.000000 0.000000
		CHANNELS 3 Xrotation Yrotation Zrotation
		JOINT LeftUpLeg
		{
			OFFSET 13.026900 -6.336304 -1.092800
			CHANNELS 3 Xrotation Yrotation Zrotation
			JOINT LeftLeg
			{
				OFFSET 0.524474 -46.096886 9.782700
				CHANNELS 3 Xrotation Yrotation Zrotation
				JOINT LeftFoot
				{
					OFFSET -0.524474 -53.427422 -12.948200
					CHANNELS 3 Xrotation Yrotation Zrotation
					JOINT LeftToeBase
					{
						OFFSET 0.192200 -14.009700 16.364100
						CHANNELS 3 Xrotation Yrotation Zrotation
						JOINT LeftToe_End
						{
							OFFSET -1.784700 -0.561700 9.474800
							CHANNELS 3 Xrotation Yrotation Zrotation
							End Site
							{
								OFFSET 0 0 0
							}
						}
					}
				}
			}
		}
	}
	JOINT RightUpLeg_virtual
	{
		OFFSET 0.000000 0.000000 0.000000
		CHANNELS 3 Xrotation Yrotation Zrotation
		JOINT RightUpLeg
		{
			OFFSET -12.883000 -6.336304 -1.092800
			CHANNELS 3 Xrotation Yrotation Zrotation
			JOINT RightLeg
			{
				OFFSET -0.524587 -46.096825 9.782800
				CHANNELS 3 Xrotation Yrotation Zrotation
				JOINT RightFoot
				{
					OFFSET 0.524587 -53.427383 -12.948300
					CHANNELS 3 Xrotation Yrotation Zrotation
					JOINT RightToeBase
					{
						OFFSET -0.192200 -14.009700 16.364100
						CHANNELS 3 Xrotation Yrotation Zrotation
						JOINT RightToe_End
						{
							OFFSET 1.784700 -0.561700 9.474800
							CHANNELS 3 Xrotation Yrotation Zrotation
							End Site
							{
								OFFSET 0 0 0
							}
						}
					}
				}
			}
		}
	}
	JOINT Spine_virtual
	{
		OFFSET 0.000000 0.000000 0.000000
		CHANNELS 3 Xrotation Yrotation Zrotation
		JOINT Spine
		{
			OFFSET 0.072000 7.257294 -0.789700
			CHANNELS 3 Xrotation Yrotation Zrotation
			JOINT Spine1
			{
				OFFSET 0.000000 12.508769 -0.658067
				CHANNELS 3 Xrotation Yrotation Zrotation
				JOINT Spine1_split
				{
					OFFSET 0.000000 12.508769 -0.658067
					CHANNELS 3 Xrotation Yrotation Zrotation
					JOINT Spine2
					{
						OFFSET 0.000000 12.508769 -0.658067
						CHANNELS 3 Xrotation Yrotation Zrotation
						JOINT Neck_virtual
						{
							OFFSET 0.000000 0.000000 0.000000
							CHANNELS 3 Xrotation Yrotation Zrotation
							JOINT Neck
							{
								OFFSET 0.000000 14.033295 7.520400
								CHANNELS 3 Xrotation Yrotation Zrotation
								JOINT Head
								{
									OFFSET 0.000000 8.198502 5.703100
									CHANNELS 3 Xrotation Yrotation Zrotation
									JOINT HeadTop_End
									{
										OFFSET 0.000000 17.760803 13.332701
										CHANNELS 3 Xrotation Yrotation Zrotation
										End Site
										{
											OFFSET 0 0 0
										}
									}
								}
							}
						}
						JOINT LeftShoulder_virtual
						{
							OFFSET 0.000000 0.000000 0.000000
							CHANNELS 3 Xrotation Yrotation Zrotation
							JOINT LeftShoulder
							{
								OFFSET 6.292450 5.785301 -0.669000
								CHANNELS 3 Xrotation Yrotation Zrotation
								JOINT LeftShoulder_split
								{
									OFFSET 6.292450 5.785301 -0.669000
									CHANNELS 3 Xrotation Yrotation Zrotation
									JOINT LeftArm
									{
										OFFSET 13.907140 -6.093903 1.965100
										CHANNELS 3 Xrotation Yrotation Zrotation
										JOINT LeftForeArm
										{
											OFFSET 34.140198 0.000000 0.000000
											CHANNELS 3 Xrotation Yrotation Zrotation
											JOINT LeftHand
											{
												OFFSET 40.960209 0.000000 0.000000
												CHANNELS 3 Xrotation Yrotation Zrotation
												End Site
												{
													OFFSET 0 0 0
												}
											}
										}
									}
								}
							}
						}
						JOINT RightShoulder_virtual
						{
							OFFSET 0.000000 0.000000 0.000000
							CHANNELS 3 Xrotation Yrotation Zrotation
							JOINT RightShoulder
							{
								OFFSET -6.292450 5.785301 -0.669000
								CHANNELS 3 Xrotation Yrotation Zrotation
								JOINT RightShoulder_split
								{
									OFFSET -6.292450 5.785301 -0.669000
									CHANNELS 3 Xrotation Yrotation Zrotation
									JOINT RightArm
									{
										OFFSET -13.907140 -6.093903 1.965100
										CHANNELS 3 Xrotation Yrotation Zrotation
										JOINT RightForeArm
										{
											OFFSET -34.140198 0.000000 0.000000
											CHANNELS 3 Xrotation Yrotation Zrotation
											JOINT RightHand
											{
												OFFSET -40.960209 0.000000 0.000000
												CHANNELS 3 Xrotation Yrotation Zrotation
												End Site
												{
													OFFSET 0 0 0
												}
											}
										}
									}
								}
							}
						}
					}
				}
			}
		}
	}
}
MOTION
Frames: 10
Frame Time: 0.03333333
5.222301 89.468559 -3.600681 0.000000 0.000000 0.000000 2.461728 -55.096267 4.136341 -49.591179 -2.641805 25.788178 45.849229 -4.022193 1.045518 2.723154 -9.506827 -18.725102 -1.099257 0.094712 0.304288 0.000000 0.000000 0.000000 1.006266 -54.900763 3.835287 -31.629646 -24.414866 -41.067195 47.534589 12.964791 -2.954019 -17.573693 -7.600965 21.016441 0.489280 0.606472 0.216681 0.000000 0.000000 0.000000 4.259933 -52.096851 4.820193 8.749185 10.370145 -1.437193 3.577911 4.717120 -1.402052 0.391401 -0.163595 -0.058820 0.000000 0.000000 0.000000 3.864687 4.879759 -1.137146 -2.560339 2.956014 3.220461 -5.155729 39.998148 -6.485797 0.000000 0.000000 0.000000 4.326838 4.789585 -1.900726 0.423073 -8.495935 -15.832858 -6.145845 2.067339 1.331595 -11.797558 -39.472070 -19.813337 -6.327223 -66.645011 -3.162592 0.000000 0.000000 0.000000 5.666915 5.266831 -1.500348 -4.918812 20.475553 -19.507797 1.893304 -4.962160 -4.206480 -31.905559 28.257920 29.874633 -128.143037 88.119761 127.379285 0.000000 0.000000 0.000000 
5.588448 90.126213 -3.698227 0.000000 0.000000 0.000000 2.252680 -56.570437 4.173530 -48.861387 -1.373716 26.445331 45.244915 -4.429332 0.963838 2.563273 -8.623961 -18.937155 -1.139774 0.137604 0.098126 0.000000 0.000000 0.000000 0.973679 -55.995899 3.788095 -32.661934 -23.710933 -40.657319 47.186352 12.436069 -2.819729 -16.163750 -7.119368 20.336369 0.933178 0.617696 0.208585 0.000000 0.000000 0.000000 3.660924 -53.071478 4.431764 10.338518 10.530953 -1.974636 3.666285 4.473816 -1.547992 0.267149 0.019354 -0.145248 0.000000 0.000000 0.000000 3.685744 4.692094 -1.151200 -2.485492 2.773081 3.615106 -8.152847 39.466616 -5.852727 0.000000 0.000000 0.000000 4.808136 4.353406 -1.867706 0.783659 -8.698870 -15.851059 -7.392717 2.284785 1.014119 -20.936258 -38.500462 -25.704474 -4.896409 -67.539151 -1.981857 0.000000 0.000000 0.000000 5.856777 5.075248 -1.273036 -1.756410 20.586105 -14.250222 1.790533 -4.302035 -3.909141 -22.246269 32.600349 24.991674 -169.922102 84.280764 169.208456 0.000000 0.000000 0.000000 
5.888296 91.031723 -3.793892 0.000000 0.000000 0.000000 2.197926 -58.747516 4.033327 -47.548833 0.318644 27.519095 44.378184 -5.179385 0.940954 1.544970 -7.425863 -19.227452 -1.325644 0.139356 -0.085084 0.000000 0.000000 0.000000 0.958887 -58.068820 3.495425 -33.671081 -22.765143 -39.804396 45.981223 11.879313 -2.672122 -14.231911 -6.425946 19.782193 1.168049 0.610490 0.257326 0.000000 0.000000 0.000000 3.054708 -55.024571 3.797230 11.897525 10.281128 -2.719880 3.692453 4.064265 -1.768045 0.407534 0.014652 -0.083666 0.000000 0.000000 0.000000 3.558050 4.251690 -1.322058 -2.698485 2.546362 3.946459 -10.438211 39.863798 -5.205274 0.000000 0.000000 0.000000 5.147097 3.771088 -1.900085 1.178454 -8.471338 -14.955616 -8.405980 2.407470 0.710877 -29.848231 -36.567019 -30.110240 -2.668812 -68.303907 -0.121560 0.000000 0.000000 0.000000 5.848779 4.642365 -1.319414 0.647062 20.079732 -10.318689 1.940607 -2.729666 -3.087719 -14.112959 34.670962 18.352109 -174.469792 81.447301 173.570816 0.000000 0.000000 0.000000 
6.124013 92.126709 -3.871525 0.000000 0.000000 0.000000 2.111778 -61.677387 3.586912 -45.602038 2.309257 28.962960 43.536077 -6.202497 0.941598 -0.055539 -5.956540 -19.530714 -1.703153 0.093166 -0.223638 0.000000 0.000000 0.000000 0.951058 -60.975107 2.954570 -34.694001 -21.597895 -38.522936 44.025849 11.359459 -2.520350 -11.982175 -5.446494 19.330084 1.304696 0.575569 0.377952 0.000000 0.000000 0.000000 2.356624 -57.755670 2.856060 13.173923 9.755382 -3.653960 3.697863 3.627004 -2.022228 0.519921 0.152887 0.019587 0.000000 0.000000 0.000000 3.500107 3.702721 -1.566246 -3.210294 2.256971 4.274712 -11.712916 41.087546 -4.504487 0.000000 0.000000 0.000000 5.314690 3.200450 -1.969429 1.508725 -8.092363 -13.230235 -9.221333 2.334926 0.500992 -37.083139 -33.905940 -31.414523 -0.145292 -69.791829 1.978119 0.000000 0.000000 0.000000 5.720085 4.115061 -1.578951 2.377153 19.349216 -7.976156 1.920476 -0.970169 -1.743817 -9.544792 37.528194 11.889525 -173.328358 82.103901 172.005596 0.000000 0.000000 0.000000 
6.345922 93.298126 -3.953960 0.000000 0.000000 0.000000 2.128575 -65.416417 2.992430 -43.154563 4.462924 30.647940 42.987623 -7.313171 0.952526 -1.935729 -4.113214 -19.653849 -2.011385 0.002542 -0.348578 0.000000 0.000000 0.000000 0.821562 -64.637475 2.126642 -35.769731 -20.276415 -36.901026 41.533199 10.851716 -2.329549 -9.668872 -4.139743 18.857956 1.436880 0.516437 0.553126 0.000000 0.000000 0.000000 1.568087 -61.247611 1.642101 13.973079 9.049955 -4.713178 3.737201 3.259138 -2.230224 0.923346 0.207150 0.096856 0.000000 0.000000 0.000000 3.540459 3.173820 -1.786059 -4.021416 2.109518 4.529470 -11.981403 43.156960 -3.736655 0.000000 0.000000 0.000000 5.343179 2.756694 -2.044073 1.732802 -7.720649 -10.931135 -9.628091 2.193672 0.724444 -41.444567 -30.831679 -29.111489 1.862363 -72.350295 3.656088 0.000000 0.000000 0.000000 5.548778 3.608516 -1.905142 3.418259 18.382633 -7.200021 1.249606 0.028931 0.142911 -9.105189 43.299895 6.809339 -165.620039 85.052835 163.730412 0.000000 0.000000 0.000000 
6.499262 94.461609 -4.070412 0.000000 0.000000 0.000000 2.052916 -69.780081 2.243209 -40.261995 6.771253 32.481330 42.681985 -8.360209 0.962779 -3.789430 -1.962438 -19.576622 -2.194285 -0.111544 -0.452604 0.000000 0.000000 0.000000 0.509571 -68.765955 1.101956 -36.928780 -18.825277 -35.095394 38.852804 10.360422 -2.135794 -7.420330 -2.519353 18.343055 1.651984 0.453964 0.738559 0.000000 0.000000 0.000000 0.481116 -65.254890 0.133622 14.147391 8.176862 -5.835845 3.802199 2.977894 -2.322361 1.305774 -0.389489 0.068817 0.000000 0.000000 0.000000 3.681282 2.682962 -1.847513 -5.001656 2.312645 4.666972 -11.199902 46.122697 -3.152222 0.000000 0.000000 0.000000 5.250471 2.473794 -2.049485 1.880160 -7.532299 -8.288505 -9.727801 2.041381 1.442981 -43.026551 -26.746865 -24.060576 2.896019 -75.020448 4.509403 0.000000 0.000000 0.000000 5.395035 3.145222 -2.146342 3.737682 16.972057 -7.626154 0.503620 0.212806 1.878925 -13.386687 51.319620 5.159768 -142.950463 87.452089 140.604430 0.000000 0.000000 0.000000 
6.578345 95.528831 -4.167999 0.000000 0.000000 0.000000 1.694346 -74.439971 1.359973 -37.094477 9.336169 34.243454 42.312984 -9.235579 0.930031 -5.370138 0.359378 -19.437721 -2.302696 -0.239202 -0.497831 0.000000 0.000000 0.000000 -0.042383 -73.229627 -0.018195 -38.093399 -17.361175 -33.287357 36.260300 9.931539 -1.988145 -5.226739 -0.578979 17.931463 1.957731 0.412607 0.901014 0.000000 0.000000 0.000000 -0.884019 -69.609893 -1.575697 13.651597 7.175574 -6.924468 3.863316 2.741649 -2.291939 1.600372 -0.769075 0.299311 0.000000 0.000000 0.000000 3.933745 2.233047 -1.746446 -6.037595 2.968332 4.714033 -9.301078 50.084582 -3.108782 0.000000 0.000000 0.000000 5.042265 2.281259 -1.991185 1.971345 -7.585140 -5.529765 -9.488126 1.644538 2.442387 -42.524061 -21.179571 -17.790963 2.244156 -76.484178 3.914817 0.000000 0.000000 0.000000 5.216079 2.688269 -2.215149 3.547132 15.245220 -8.792138 -0.168987 -0.179953 3.264013 -23.327886 59.307578 9.600539 -118.505244 88.122049 116.146370 0.000000 0.000000 0.000000 
6.637306 96.437263 -4.200550 0.000000 0.000000 0.000000 1.465645 -79.001574 0.800660 -33.945917 12.203625 35.716692 41.482659 -9.916467 0.854200 -6.609531 2.635289 -19.270393 -2.416786 -0.383205 -0.456817 0.000000 0.000000 0.000000 -0.861061 -77.810512 -1.158836 -39.154230 -15.934611 -31.582388 33.932892 9.611321 -1.922073 -3.001947 1.569338 17.749189 2.151175 0.402593 1.016407 0.000000 0.000000 0.000000 -2.112604 -74.039852 -2.977377 12.609462 6.015509 -7.816415 3.912890 2.503550 -2.201904 2.151985 -1.284847 0.654198 0.000000 0.000000 0.000000 4.215365 1.808342 -1.587366 -7.050774 4.117175 4.779771 -6.216670 55.060911 -4.027546 0.000000 0.000000 0.000000 4.825684 2.104801 -1.935677 2.127621 -7.724170 -2.696929 -8.847686 0.924354 3.394261 -40.953148 -14.534468 -12.127063 0.289983 -75.333831 2.215624 0.000000 0.000000 0.000000 5.028689 2.234296 -2.154065 2.895700 13.238157 -10.251621 -0.590605 -0.860543 4.098150 -38.371221 64.437214 21.015442 -131.284405 88.134603 129.433861 0.000000 0.000000 0.000000 
6.591462 97.139389 -4.227226 0.000000 0.000000 0.000000 1.520640 -82.901817 0.762450 -31.138214 15.299641 36.840121 39.939251 -10.523076 0.768285 -7.395850 4.551010 -19.218663 -2.584957 -0.536270 -0.335823 0.000000 0.000000 0.000000 -1.414389 -81.990527 -1.815332 -39.945924 -14.609503 -29.924360 31.760813 9.333207 -1.981728 -0.891973 3.697867 17.734598 2.121417 0.438915 1.084853 0.000000 0.000000 0.000000 -2.465621 -78.257958 -3.418298 11.170187 4.708498 -8.363514 3.924026 2.262742 -2.153674 2.578447 -1.343704 0.899868 0.000000 0.000000 0.000000 4.400710 1.430064 -1.493732 -7.964522 5.527847 4.950254 -1.590864 60.615333 -6.424974 0.000000 0.000000 0.000000 4.663006 1.885132 -1.952582 2.350969 -7.744099 0.233703 -8.310519 -0.294759 4.273557 -39.505558 -7.392437 -8.099901 -1.255856 -71.103307 1.057548 0.000000 0.000000 0.000000 4.793094 1.778981 -2.074990 2.073257 11.144735 -11.870777 -1.469493 -1.110871 3.979297 -53.000499 65.508611 34.104805 -162.068942 86.953158 161.228760 0.000000 0.000000 0.000000 
6.366689 97.599190 -4.146759 0.000000 0.000000 0.000000 3.891937 -85.955813 3.103722 -29.025118 18.370478 37.699591 37.682048 -11.076525 0.640669 -7.788941 5.981804 -19.217106 -2.689137 -0.695610 -0.189262 0.000000 0.000000 0.000000 0.127788 -85.414439 -0.287855 -40.356545 -13.470588 -28.242371 29.411601 9.014383 -2.135568 0.822167 5.606301 17.801502 1.814987 0.511609 1.090852 0.000000 0.000000 0.000000 -0.744245 -81.936397 -1.792630 9.558368 3.328185 -8.490577 3.916114 2.054060 -2.215235 2.671116 -0.524011 0.874524 0.000000 0.000000 0.000000 4.417152 1.141693 -1.569569 -8.779751 6.991406 5.216379 4.704328 66.054397 -10.643542 0.000000 0.000000 0.000000 4.563182 1.645700 -2.077304 2.569324 -7.568934 3.339692 -7.653030 -1.537265 5.172600 -38.962561 -1.045067 -5.779724 -2.010797 -64.669365 0.726513 0.000000 0.000000 0.000000 4.518467 1.372388 -2.098132 1.246278 9.067828 -13.575059 -2.585339 -0.796868 3.568977 -61.438747 64.650555 42.933907 -174.444384 83.780316 174.899575 0.000000 0.000000 0.000000 
